<svg width="174" height="66" viewBox="0 0 174 66" fill="none" xmlns="http://www.w3.org/2000/svg">
<rect width="174" height="66" fill="#1E1E1E"/>
<path d="M1.3165 66C0.4915 66 0.0790002 65.5875 0.0790002 64.7625V1.254C0.0790002 0.428996 0.4915 0.0164968 1.3165 0.0164968H31.561C32.419 0.0164968 33.079 0.230997 33.541 0.659997L44.926 11.946C45.289 12.276 45.52 12.5565 45.619 12.7875C45.718 13.0185 45.7675 13.398 45.7675 13.926V27.489C45.7675 27.918 45.487 28.413 44.926 28.974L38.095 35.805L37.006 36.795L40.075 41.3985L46.2625 53.2785C46.4275 53.5755 46.5265 53.8725 46.5595 54.1695C46.6255 54.4335 46.6585 54.78 46.6585 55.209V64.7625C46.6585 65.5875 46.246 66 45.421 66H29.779C29.053 66 28.558 65.67 28.294 65.01L21.5125 47.586H20.671V64.7625C20.671 65.5875 20.2585 66 19.4335 66H1.3165ZM22.8985 26.895C24.2515 26.895 25.3405 26.466 26.1655 25.608C27.0235 24.75 27.4525 23.661 27.4525 22.341C27.4525 21.021 27.0235 19.9485 26.1655 19.1235C25.3405 18.2655 24.2515 17.8365 22.8985 17.8365C21.5785 17.8365 20.4895 18.2655 19.6315 19.1235C18.8065 19.9485 18.394 21.021 18.394 22.341C18.394 23.661 18.8065 24.75 19.6315 25.608C20.4895 26.466 21.5785 26.895 22.8985 26.895ZM52.0733 66C51.2483 66 50.8358 65.5875 50.8358 64.7625V50.8035C50.8358 50.4075 50.8523 50.094 50.8853 49.863C50.9513 49.599 51.1493 49.368 51.4793 49.17L61.9733 43.131V40.656L51.6278 35.211C51.0998 34.914 50.8358 34.419 50.8358 33.726V11.451C50.8358 10.923 50.8688 10.5435 50.9348 10.3125C51.0008 10.0485 51.2318 9.768 51.6278 9.471L64.6958 0.659997C64.9598 0.461996 65.2403 0.313495 65.5373 0.214494C65.8343 0.082496 66.2138 0.0164968 66.6758 0.0164968H84.1493C84.9743 0.0164968 85.3868 0.428996 85.3868 1.254V15.906C85.3868 16.632 85.1393 17.127 84.6443 17.391L71.6753 23.0835V25.6575L84.6443 33.0825C85.1393 33.3135 85.3868 33.8415 85.3868 34.6665V56.199C85.3868 56.463 85.3373 56.7435 85.2383 57.0405C85.1723 57.3045 85.0073 57.519 84.7433 57.684L69.2003 65.406C69.0023 65.538 68.7548 65.67 68.4578 65.802C68.1938 65.934 67.9298 66 67.6658 66H52.0733Z" fill="white"/>
<path d="M90.7452 66C89.9202 66 89.5077 65.5875 89.5077 64.7625V18.876C89.5077 18.348 89.6727 17.853 90.0027 17.391L101.685 0.758996C102.048 0.263997 102.576 0.0164968 103.269 0.0164968H120.99C121.716 0.0164968 122.244 0.263997 122.574 0.758996L134.355 17.391C134.685 17.853 134.85 18.348 134.85 18.876V64.7625C134.85 65.5875 134.437 66 133.612 66H115.495C114.67 66 114.258 65.5875 114.258 64.7625V46.2H110.1V64.7625C110.1 65.5875 109.687 66 108.862 66H90.7452ZM112.179 29.0235C113.598 29.0235 114.753 28.578 115.644 27.687C116.535 26.796 116.98 25.6575 116.98 24.2715C116.98 22.8525 116.535 21.6975 115.644 20.8065C114.753 19.9155 113.598 19.47 112.179 19.47C110.76 19.47 109.605 19.9155 108.714 20.8065C107.823 21.6975 107.377 22.8525 107.377 24.2715C107.377 25.6575 107.823 26.796 108.714 27.687C109.605 28.578 110.76 29.0235 112.179 29.0235ZM147.225 66C146.4 66 145.987 65.5875 145.987 64.7625V19.8165H140.245C139.42 19.8165 139.008 19.404 139.008 18.579V1.254C139.008 0.428996 139.42 0.0164968 140.245 0.0164968H172.42C173.245 0.0164968 173.658 0.428996 173.658 1.254V18.579C173.658 19.404 173.245 19.8165 172.42 19.8165H166.629V64.7625C166.629 65.5875 166.216 66 165.391 66H147.225Z" fill="#909FFF"/>
</svg>
